<!DOCTYPE svg PUBLIC "-//W3C//DTD SVG 1.1//EN" "http://www.w3.org/Graphics/SVG/1.1/DTD/svg11.dtd">
<svg fill="currentColor" height="64px" width="64px" version="1.1" id="Layer_1"
  xmlns="http://www.w3.org/2000/svg" xmlns:xlink="http://www.w3.org/1999/xlink"
  viewBox="0 0 512 512" xml:space="preserve">

<g id="SVGRepo_bgCarrier" stroke-width="0"/>

<g id="SVGRepo_tracerCarrier" stroke-linecap="round" stroke-linejoin="round"/>

<g id="SVGRepo_iconCarrier"> <g> <g> <path d="M503.467,435.2h-25.6v-8.149c0-9.626-7.825-17.451-17.451-17.451h-16.725c-0.205-9.31-7.714-16.819-17.024-17.032V119.424 c9.31-0.205,16.819-7.714,17.024-17.024h16.725c9.626,0,17.451-7.834,17.451-17.451V76.8h25.6c4.719,0,8.533-3.823,8.533-8.533 s-3.814-8.533-8.533-8.533h-25.6v-8.149c0-9.626-7.825-17.451-17.451-17.451h-16.725c-0.205-9.438-7.91-17.067-17.408-17.067 H85.717c-9.498,0-17.203,7.629-17.408,17.067H51.584c-9.626,0-17.451,7.825-17.451,17.451v8.149h-25.6 C3.814,59.733,0,63.556,0,68.267S3.814,76.8,8.533,76.8h25.6v8.149c0,9.617,7.825,17.451,17.451,17.451h16.725 c0.205,9.31,7.714,16.819,17.024,17.024v273.143c-9.31,0.213-16.819,7.723-17.024,17.032H51.584 c-9.626,0-17.451,7.825-17.451,17.451v8.149h-25.6C3.814,435.2,0,439.023,0,443.733s3.814,8.533,8.533,8.533h25.6v8.149 c0,9.617,7.825,17.451,17.451,17.451h16.725c0.205,9.438,7.91,17.067,17.408,17.067h340.565c9.498,0,17.203-7.629,17.408-17.067 h16.725c9.626,0,17.451-7.834,17.451-17.451v-8.149h25.6c4.719,0,8.533-3.823,8.533-8.533S508.186,435.2,503.467,435.2z M85.717,34.133l340.949,0.384v67.499c0,0.213-0.179,0.384-0.384,0.384l-340.949-0.384L85.717,34.133z M221.867,307.2 c-4.719,0-8.533-3.823-8.533-8.533s3.814-8.533,8.533-8.533h68.267c4.719,0,8.533,3.823,8.533,8.533s-3.814,8.533-8.533,8.533 H221.867z M281.6,341.333c0,4.71-3.814,8.533-8.533,8.533H256c-4.719,0-8.533-3.823-8.533-8.533c0-4.71,3.814-8.533,8.533-8.533 h17.067C277.786,332.8,281.6,336.623,281.6,341.333z M230.4,341.333c0,4.71-3.823,8.533-8.533,8.533 c-4.71,0-8.533-3.823-8.533-8.533c0-4.71,3.823-8.533,8.533-8.533C226.577,332.8,230.4,336.623,230.4,341.333z M221.867,204.8 h68.267c4.719,0,8.533,3.823,8.533,8.533c0,4.71-3.814,8.533-8.533,8.533h-68.267c-4.719,0-8.533-3.823-8.533-8.533 C213.333,208.623,217.148,204.8,221.867,204.8z M213.333,170.667c0-4.71,3.823-8.533,8.533-8.533c4.71,0,8.533,3.823,8.533,8.533 s-3.823,8.533-8.533,8.533C217.156,179.2,213.333,175.377,213.333,170.667z M247.467,170.667c0-4.71,3.814-8.533,8.533-8.533 h17.067c4.719,0,8.533,3.823,8.533,8.533s-3.814,8.533-8.533,8.533H256C251.281,179.2,247.467,175.377,247.467,170.667z M281.6,256c0,4.71-3.814,8.533-8.533,8.533H256c-4.719,0-8.533-3.823-8.533-8.533c0-4.71,3.814-8.533,8.533-8.533h17.067 C277.786,247.467,281.6,251.29,281.6,256z M221.867,247.467c4.71,0,8.533,3.823,8.533,8.533c0,4.71-3.823,8.533-8.533,8.533 c-4.71,0-8.533-3.823-8.533-8.533C213.333,251.29,217.156,247.467,221.867,247.467z M307.2,332.8c4.71,0,8.533,3.823,8.533,8.533 c0,4.71-3.823,8.533-8.533,8.533s-8.533-3.823-8.533-8.533C298.667,336.623,302.49,332.8,307.2,332.8z M307.2,264.533 c-4.71,0-8.533-3.823-8.533-8.533c0-4.71,3.823-8.533,8.533-8.533s8.533,3.823,8.533,8.533 C315.733,260.71,311.91,264.533,307.2,264.533z M341.333,247.467h25.6c4.719,0,8.533,3.823,8.533,8.533 c0,4.71-3.814,8.533-8.533,8.533h-25.6c-4.719,0-8.533-3.823-8.533-8.533C332.8,251.29,336.614,247.467,341.333,247.467z M332.8,170.667c0-4.71,3.814-8.533,8.533-8.533h25.6c4.719,0,8.533,3.823,8.533,8.533s-3.814,8.533-8.533,8.533h-25.6 C336.614,179.2,332.8,175.377,332.8,170.667z M324.267,221.867c-4.71,0-8.533-3.823-8.533-8.533c0-4.71,3.823-8.533,8.533-8.533 s8.533,3.823,8.533,8.533C332.8,218.044,328.977,221.867,324.267,221.867z M307.2,179.2c-4.71,0-8.533-3.823-8.533-8.533 s3.823-8.533,8.533-8.533s8.533,3.823,8.533,8.533S311.91,179.2,307.2,179.2z M324.267,290.133c4.71,0,8.533,3.823,8.533,8.533 s-3.823,8.533-8.533,8.533s-8.533-3.823-8.533-8.533S319.556,290.133,324.267,290.133z M341.333,332.8h25.6 c4.719,0,8.533,3.823,8.533,8.533c0,4.71-3.814,8.533-8.533,8.533h-25.6c-4.719,0-8.533-3.823-8.533-8.533 C332.8,336.623,336.614,332.8,341.333,332.8z M358.4,307.2c-4.719,0-8.533-3.823-8.533-8.533s3.814-8.533,8.533-8.533h17.067 c4.719,0,8.533,3.823,8.533,8.533s-3.814,8.533-8.533,8.533H358.4z M375.467,221.867H358.4c-4.719,0-8.533-3.823-8.533-8.533 c0-4.71,3.814-8.533,8.533-8.533h17.067c4.719,0,8.533,3.823,8.533,8.533C384,218.044,380.186,221.867,375.467,221.867z M136.533,290.133H153.6c4.719,0,8.533,3.823,8.533,8.533s-3.814,8.533-8.533,8.533h-17.067c-4.719,0-8.533-3.823-8.533-8.533 S131.814,290.133,136.533,290.133z M128,213.333c0-4.71,3.814-8.533,8.533-8.533H153.6c4.719,0,8.533,3.823,8.533,8.533 c0,4.71-3.814,8.533-8.533,8.533h-17.067C131.814,221.867,128,218.044,128,213.333z M153.6,332.8h34.133 c4.719,0,8.533,3.823,8.533,8.533c0,4.71-3.814,8.533-8.533,8.533H153.6c-4.719,0-8.533-3.823-8.533-8.533 C145.067,336.623,148.881,332.8,153.6,332.8z M187.733,307.2c-4.71,0-8.533-3.823-8.533-8.533s3.823-8.533,8.533-8.533 s8.533,3.823,8.533,8.533S192.444,307.2,187.733,307.2z M187.733,264.533H153.6c-4.719,0-8.533-3.823-8.533-8.533 c0-4.71,3.814-8.533,8.533-8.533h34.133c4.719,0,8.533,3.823,8.533,8.533C196.267,260.71,192.452,264.533,187.733,264.533z M187.733,221.867c-4.71,0-8.533-3.823-8.533-8.533c0-4.71,3.823-8.533,8.533-8.533s8.533,3.823,8.533,8.533 C196.267,218.044,192.444,221.867,187.733,221.867z M187.733,179.2H153.6c-4.719,0-8.533-3.823-8.533-8.533 s3.814-8.533,8.533-8.533h34.133c4.719,0,8.533,3.823,8.533,8.533S192.452,179.2,187.733,179.2z M426.667,477.483 c0,0.213-0.179,0.384-0.384,0.384l-340.949-0.384l0.384-67.883l340.949,0.384V477.483z"/> </g> </g> </g>

</svg>
